# xmcd
#
# Track frame offsets:
#   150
#   18024
#   38650
#   54847
#   70899
#   89732
#   103766
#   121065
#   140548
#   161212
#   177857
#   189887
#   203139
#   216257
#   232815
#   249179
#   264615
#
# Disc length: 3705 seconds
#
# Revision: 0
# Processed by: cddbd v1.5.1PL0 Copyright (c) Steve Scherf et al.
# Submitted via: uFREEDB ActiveX Control 1.5
#
DISCID=e10e7711
DTITLE=Bruno&Marrone - Bruno&Marrone
DYEAR=2003
DGENRE=Country
TTITLE0=Mais uma vez
TTITLE1=Por um minuto
TTITLE2=Vidavazia 
TTITLE3=Acorrentado em você
TTITLE4=Agarrada em mim
TTITLE5=Apenas um sorriso
TTITLE6=Bar solidão
TTITLE7=Cilada de amor
TTITLE8=Medo
TTITLE9=Como eu te amo
TTITLE10=Feriado nacional
TTITLE11=Goias é mais
TTITLE12=Olha o trem querendo
TTITLE13=Sera que me esqueceu
TTITLE14=Te amo, e não te quero
TTITLE15=Tá combinado assim
TTITLE16=Vivendo de passado
EXTD=
EXTT0=
EXTT1=
EXTT2=
EXTT3=
EXTT4=
EXTT5=
EXTT6=
EXTT7=
EXTT8=
EXTT9=
EXTT10=
EXTT11=
EXTT12=
EXTT13=
EXTT14=
EXTT15=
EXTT16=
PLAYORDER=
